<?xml version="1.0" standalone="no"?>
<!DOCTYPE svg PUBLIC "-//W3C//DTD SVG 1.1//EN" "http://www.w3.org/Graphics/SVG/1.1/DTD/svg11.dtd" >
<svg xmlns="http://www.w3.org/2000/svg" xmlns:xlink="http://www.w3.org/1999/xlink" version="1.1" viewBox="-10 0 1622 2048">
  
  <g transform="matrix(1 0 0 -1 0 1489)">
    <path fill="currentColor"
d="M1430 -180 h-983 c-67.6,0 -132.5,26.9 -180.3,74.7 c-47.8,47.8 -74.4,112.7 -74.4,180.3 v1054 c0 67.6,26.9,132.5 74.7,180.3 c47.8,47.8 112.7,74.4 180.3,74.4 h983 v-1174 h-983 c-35.8,0 -70.2,-14.2 -95.5,-39.5 c-25.3,-25.3 -39.5,-59.7 -39.5,-95.5 c0,-35.8 14.2,-70.2 39.5,-95.5 c25.3,-25.3 59.7,-39.5 95.5,-39.5 h983 v-120z M1310 330 v934 h-863 c-35.8,0 -70.2,-14.2 -95.5,-39.5 c-25.3,-25.3 -39.5,-59.7 -39.5,-95.5 v-838 c40.5,25.3 87.2,39 135,39 h863z M717 443 v285.6 q97.8 40.8 141 67.2 t64.2 55.8 t21 67.8 q0 91.8 -118.2 91.8 q-54 0 -86.7 -21.3 t-59.7 -65.7 l-139.8 83.4 q41.4 73.8 110.4 111.3 t174.6 37.5 q142.8 0 218.1 -59.1 t75.3 -165.9 q0 -59.4 -24.3 -105.6 t-68.7 -84 t-144 -86.4 v-212.4 h-163.2"/>
  </g>

</svg>