<?xml version="1.0" standalone="no"?>
<!DOCTYPE svg PUBLIC "-//W3C//DTD SVG 1.1//EN" "http://www.w3.org/Graphics/SVG/1.1/DTD/svg11.dtd" >
<svg xmlns="http://www.w3.org/2000/svg" xmlns:xlink="http://www.w3.org/1999/xlink" version="1.1" viewBox="-10 0 1690 2048">
  <g transform="matrix(1 0 0 -1 0 1489)">
    <path fill="currentColor"
    d="M1561 692 c0,-398.2 -322.8,-721 -721 -721 c-398.2,0 -721,322.8 -721 721 c0,398.2 322.8,721 721 721 c398.2,0 721,-322.8 721 -721z M976 1135 c 0,75.1 -60.9,136 -136,136 c-75.1,0 -136,-60.9 -136,-136 c0,-75.1 60.9,-136 136,-136 c75.1,0 136,60.9 136,136z M840,932 q-203.7,0 -409,65 c-33.1,10.5 -68.5,-7.9 -79,-41 c-10.5,-33.1 7.9,-68.5 41,-79 q121,-37.7 312,-64 q12,-287.3 -95,-585 c-12.7,-35.3 5.7,-74.3 41,-87 c35.3,-12.7 74.3,5.7 87,41 q66,178.1 85,296 q17,-5 34,0 q21,-117.9 85,-296 c12.7,-35.3 51.7,-53.7 87,-41 c35.3,12.7 53.7,51.7 41,87 q-107,297.7 -95,585 q 193,26.32 312,64 c33.1,10.5 51.5,45.9 41,79 c-10.5,33.1 -45.9,51.5 -79,41 q-205.3,-65 -409,-65z"/>
  </g>

</svg>