<?xml version="1.0" standalone="no"?>
<!DOCTYPE svg PUBLIC "-//W3C//DTD SVG 1.1//EN" "http://www.w3.org/Graphics/SVG/1.1/DTD/svg11.dtd" >
<svg xmlns="http://www.w3.org/2000/svg" xmlns:xlink="http://www.w3.org/1999/xlink" version="1.1" viewBox="-10 0 749 2048">
  <!-- viewBox is widest + 112 -->
  <defs>
  <g id="foo">
    <circle r="15" cx="637" cy="0"    fill="red"/>
    <circle r="15" cx="102" cy="0"    fill="blue"/>
    <circle r="15" cx="102" cy="190"  fill="blue"/>
    <circle r="15" cx="245" cy="190"  fill="purple"/>
    <circle r="15" cx="245" cy="875"  fill="purple"/>
    <circle r="15" cx="102" cy="875"  fill="blue"/>
    <circle r="15" cx="102" cy="1065" fill="blue"/>
    <circle r="15" cx="637" cy="1065" fill="blue"/>
    <circle r="15" cx="637" cy="875"  fill="blue"/>
    <circle r="15" cx="495" cy="875"  fill="purple"/>
    <circle r="15" cx="495" cy="190"  fill="purple"/>
    <circle r="15" cx="637" cy="190"  fill="blue"/>
  </g>
  </defs>
  <rect x="-10" y="0" width="759" height="2048" fill="#f0f8ff"/>
  <g transform="matrix(0.7695 0 0 -0.7695 0 1489)">
   <path fill="gray" d="
   M  770    0
   l -668    0
   l    0  217
   l  193    0
   l    0  950
   l -193    0
   l    0  217
   l  668    0
   l    0 -217
   l -192    0   
   l    0 -950
   l  192    0
   
   l    0 -217z
   " />
  </g>
  <g transform="matrix(1 0 0 -1 0 1489)">
    <path stroke="black" stroke-width="10" fill="yellow" fill-opacity="0.5" d="
      M  637    0
      L  102    0
      L  102  190
      L  245  190
      L  245  875
      L  102  875
      L  102 1065
      L  637 1065
      L  637  875
      L  495  875
      L  495  190
      L  637  190
      L  637    0z
    "/>
  </g>
  <text x="5" y="1750" font-size="50" >Clear Sans Bold Small Caps i</text>
</svg>
