<?xml version="1.0" standalone="no"?>
<!DOCTYPE svg PUBLIC "-//W3C//DTD SVG 1.1//EN" "http://www.w3.org/Graphics/SVG/1.1/DTD/svg11.dtd" >
<svg xmlns="http://www.w3.org/2000/svg" xmlns:xlink="http://www.w3.org/1999/xlink" version="1.1" viewBox="-10 0 1690 2048">
  <g transform="matrix(1 0 0 -1 0 1489)">
    <path fill="currentColor"
d="M1561 692 c0,-398.2 -322.8,-721 -721 -721 c-398.2,0 -721,322.8 -721 721 c0,398.2 322.8,721 721 721 c398.2,0 721,-322.8 721 -721z M688 1310 q-149,-35 -254 -128 q66,-38 126,-56 q40,80 128,184z M1120 1126 q60,18 126,56 q-105,93 -254,128 q88,-104 128,-184z M812 1327 q -22,-0.5 -32,-2 q-100,-89 -166,-215 q90,-25 198,-30 v247z M868 1080 q108,5 198,30 q -66,126 -166,215 q-10,1.5 -32,0.5 v-247 M451.4 720 c2,127.4 29.9,239.6 82.5,355.6 q-80.1,25 -143.3,65 c-112,-112.2 -178,-262.2 -185,-420.6 h245.8z M1474.4 720 c-7,158.4 -73,308.4 -185,420.6 q-63.2,-40 -143.3,-65 c52.6,-116 80.5,-228.2 82.5,-355.6 h245.8z M560 258 q-60,-18 -126,-56 q105,-93 254,-128 q-88,104 -128,184z M812 304 q-108,-5 -198,-30 q66,-126 166,-215 q10,-1.5 32,-0.5 v247z M205.6 664 c7,-158.4 73,-308.4 185,-420.6 q63.2,40 143.3,65 c-52.6,116 -80.5,228.2 -82.5,355.6 h-245.8z M992 74 q149,35 254 128 q-66,38 -126,56 q-40,-80 -128,-184z M868 57 q22,0.5 32,2 q100,89 166,215 q-90,25 -198,30 v-247z M1228.6 664 c-2,-127.4 -29.9,-239.6 -82.5,-355.6 q80.1,-25 143.3,-65 c112,112.2 178,262.2 185,420.6 h-245.8z M1091.9 1059.3 c-164.7,-46.4 -339.1,-46.4 -503.8,0 c-108.1,-232.9 -108.1,-501.7 0,-734.6 c164.7,46.4 339.1,46.4 503.8,0 c108.1,232.9 108.1,501.7 0,734.6z M590   740 c138.1,138.1 361.9,138.1 500,0 l-28.3 -28.3 c-122.5,122.5 -320.9,122.5 -443.4,0 l-28.3,28.3z M643   687 c108.8,108.8 285.2,108.8 394,0 l-28.3 -28.3 c-93.1,93.2 -244.3,93.2 -337.4,0 l-28.3,28.3z M696.1 633.9 c79.5,79.5 208.3,79.5 287.8,0 l-28.3 -28.3 c-63.9,63.9 -167.3,63.9 -231.2,0 l-28.3 28.3z M749.1 580.9 c50.2,50.2 131.6,50.2 181.8,0 l-42,-42 h-97.8 l-42,42z
    "/>
  </g>

</svg>