<?xml version="1.0" standalone="no"?>
<!DOCTYPE svg PUBLIC "-//W3C//DTD SVG 1.1//EN" "http://www.w3.org/Graphics/SVG/1.1/DTD/svg11.dtd" >
<svg xmlns="http://www.w3.org/2000/svg" xmlns:xlink="http://www.w3.org/1999/xlink" version="1.1" viewBox="-10 0 1522 2048">
  <g transform="matrix(1 0 0 -1 0 1489)">
    <path fill="currentColor"
    d="
      M1330 0 h-983 c-42.8,0 -85.8,17.4 -116.7,48.3 c-30.6,30.9 -48.3,72.9 -48.3,116.7 v1054 c0,43.8 17.7,85.8 48.3,116.7 c30.9,30.9 73.9,48.3 116.7,48.3 h983 v-1114 h-983 c-27.8,0 -54.5,-11.1 -74.2,-30.8 c-19.7,-19.7 -30.8,-46.4 -30.8,-74.2 c0,-27.8 11.1,-54.5 30.8,-74.2 c19.7,-19.7 46.4,-30.8 74.2,-30.8 h983 v-60z
      M1270,1324 h-923 c-27.8,0 -54.5,-11.1 -74.2,-30.8 c-19.7,-19.7 -30.8,-46.4 -30.8,-74.2 v-926.7 c24.4,29.6 66.7,37.7 105,37.7 h923 v994z
      M656 644 v180.6 q97.8 40.8 141 67.2 t64.2 55.8 t21 67.8 q0 91.8 -118.2 91.8 q-54 0 -86.7 -21.3 t-59.7 -65.7 l-139.8 83.4 q41.4 73.8 110.4 111.3 t174.6 37.5 q142.5 0 218.1 -59.1 t75.3 -165.9 q0 -59.4 -24.3 -105.6 t-68.7 -84 t-144 -86.4 v-107.4 h-163.2z
      M838 488 q0 -51.6 -23.4 -71.7 t-75 -20.1 q-56.4 0 -76.8 22.5 t-20.4 69.3 q0 49.2 21.6 70.8 t 75.6 21.6 q55.2 0 76.8 -21.6 t21.6 -70.8z
"/>
  </g>

</svg>