<?xml version="1.0" standalone="no"?>
<!DOCTYPE svg PUBLIC "-//W3C//DTD SVG 1.1//EN" "http://www.w3.org/Graphics/SVG/1.1/DTD/svg11.dtd" >
<svg xmlns="http://www.w3.org/2000/svg" xmlns:xlink="http://www.w3.org/1999/xlink" version="1.1" viewBox="-10 0 1690 2048">
  <g transform="matrix(1 0 0 -1 0 1489)">
    <path fill="currentColor"
d="M1248 0 h-983 c-49.9,0 -97.1,22.6 -128.4,61.4 c-31.3,38.8 -43.4,89.7 -32.9,138.5 l229 1054 c7.4,36.9 28.4,69.8 57.7,93.5 c29.3,23.7 65.9,36.6 103.6,36.6 h1055 l-242 -1114 h-1042 c-27.8,0 -54.5,-11.1 -74.2,-30.8 c-19.7,-19.7 -30.8,-46.4 -30.8,-74.2 c0,-27.8 11.1,-54.5 30.8,-74.2 c19.7,-19.7 46.4,-30.8 74.2,-30.8 h996 l-13,-60z M1477 1324 h-983 c-24,0 -47.2,-8.2 -65.9,-23.3 c-18.7,-15.1 -31.6,-36 -36.7,-59.5 l-202.1 -929.6 c23.4,12.1 49.4,18.4 75.7,18.4 h996 l216 994z M680 651 l36.6 168 q74.4 31.2 125.1 56.7 t81.9 49.8 t44.4 49.5 t13.2 55.8 q0 36 -22.8 53.4 t-75.6 17.4 q-26.4 0 -48 -6 t-40.8 -17.4 t-36.6 -28.2 t-35.4 -39 l-120.6 85.8 q28.8 39 60 67.5 t66.9 46.8 t76.5 27 t88.8 8.7 q130.2 0 196.8 -46.5 t66.6 -146.1 q0 -51.6 -21 -95.1 t-59.7 -81 t-93.6 -69.9 t-122.1 -62.4 l-21 -94.8 h-159.6z M829 515 q0 -20.4 -5.1 -40.5 t-13.5 -35.7 q-15 -27 -39.6 -38.7 t-63.6 -11.7 q-43.2 0 -61.5 13.8 t-18.3 42.6 q0 16.8 4.2 34.5 t10.8 34.5 q12.6 31.2 36.9 45 t67.5 13.8 q42.6 0 62.4 -13.5 t19.8 -44.1z
    "/>
  </g>

</svg>