<?xml version="1.0" standalone="no"?>
<!DOCTYPE svg PUBLIC "-//W3C//DTD SVG 1.1//EN" "http://www.w3.org/Graphics/SVG/1.1/DTD/svg11.dtd" >
<svg xmlns="http://www.w3.org/2000/svg" xmlns:xlink="http://www.w3.org/1999/xlink" version="1.1" viewBox="-10 0 1812 2048">
  <g transform="matrix(1 0 0 -1 0 1489)">
   <path fill="currentColor" d="
   M901 -197 q-219 0 -406 108.5 t-293 295 t-106 403.5 t106 402.5 t293.5 293 t405.5 107.5 q217 0 403 -106.5 t293 -292.5 t107 -404 q0 -217 -105.5 -403 t-292.5 -295 t-405 -109z
   M901 -41 q173 0 320.5 85.5 t235 237 t87.5 328.5 q0 173 -86 323.5 t-235.5 237 t-321.5 86.5 q-174 0 -323 -87 t-234.5 -237.5 t-85.5 -322.5 q0 -176 87.5 -328 t235 -237.5 t320.5 -85.5z
   M1263 765 q0 -153.5 -72.2 -227.9 t-234.3 -74.3 h-141.3 v-262.9 h-173.2 v850 h319.4 q144.3 0 222.9 -67.3 t78.6 -217.7z
   M1084 764 q0 71.9 -39.6 103.8 t-142.8 31.9 h-86.6 v-285.6 h70.6 q95.2 0 131.7 13.2 t51.6 44.5 t15 92.1z" />
  </g>

</svg>
