<?xml version="1.0" standalone="no"?>
<!DOCTYPE svg PUBLIC "-//W3C//DTD SVG 1.1//EN" "http://www.w3.org/Graphics/SVG/1.1/DTD/svg11.dtd" >
<svg xmlns="http://www.w3.org/2000/svg" xmlns:xlink="http://www.w3.org/1999/xlink" version="1.1" viewBox="-10 0 1865 2048">
  <g transform="matrix(1 0 0 -1 0 1489)">
   <path fill="currentColor" d="
   M948 -197 q-220 0 -405.5 107.5 t-292.5 294 t-107 405.5q0 221 106 405.5 t293.5 291 t405.5 106.5 q221 0 405.5 -106 t291 -293.5 t106.5 -403.5 q0 -221 -106.5 -408 t-292 -293 t-404.5 -106z
   M948 -68 q179 0 335.5 90.5 t246 247.5 t89.5 340 t-90.5 340 t-246 246.5 t-334.5 89.5 q-181 0 -336.5 -90.5 t-245.5 -247.5 t-90 -338 q0 -183 89 -339 t245 -247.5 t338 -91.5z
   M1275 780 q0 -153.5 -72.2 -222 t-234.3 -68.5 h-133.3 v-288 h-113.6 v850 h251.8 q159.1 0 230.3 -65.7 t71.2 -205.7z
   M1155 777 q0 89.1 -44.2 130.2 t-151.1 41.1 h-125.3 v-356.2 h109.3 q89.7 0 131.1 17.5 t60.8 56.5 t19.3 110.9z" />
  </g>

</svg>
