<?xml version="1.0" standalone="no"?>
<!DOCTYPE svg PUBLIC "-//W3C//DTD SVG 1.1//EN" "http://www.w3.org/Graphics/SVG/1.1/DTD/svg11.dtd" >
<svg xmlns="http://www.w3.org/2000/svg" xmlns:xlink="http://www.w3.org/1999/xlink" version="1.1" viewBox="-20 0 719 2048">
  <!-- viewBox is widest + 30 -->
  <defs>
  <g id="foo">
  
  <circle r="15" cx="-10" cy="0"    fill="red" />
  <circle r="15" cx="20"  cy="140"  fill="blue" />
  
  <circle r="15" cx="176" cy="140"  fill="purple" />
  <circle r="15" cx="343" cy="927" fill="purple" />
  
  <circle r="15" cx="187" cy="927" fill="blue" />
  <circle r="15" cx="217" cy="1065" fill="blue" />
  <circle r="15" cx="689" cy="1065" fill="blue" />
  <circle r="15" cx="659" cy="927" fill="blue" />
  <circle r="15" cx="503" cy="927" fill="black" />
  <circle r="15" cx="336" cy="140"  fill="black" />
  <circle r="15" cx="492" cy="140"  fill="blue" />
  <circle r="15" cx="462" cy="0"    fill="blue" />
  
  </g>
  </defs>
  <rect x="-20" y="0" width="739" height="2048" fill="#f0f8ff"/>
  <g transform="matrix(0.7695 0 0 -0.7695 0 1489)">
   <path fill="gray" d="
   M  543     0
   l -553     0   
   l   33   160   
   l  186     0
   l  227  1067
   l -186     0   
   l   33   157
   l  553     0
   l  -33  -157   
   l -187     0
   l -227 -1067
   l 186      0z
   " />
  </g>
  
  <g transform="matrix(1 0 0 -1 0 1489)">
  <path stroke="black" stroke-width="10" fill="yellow" fill-opacity="0.5" d="
  M  -10     0
  L   20   140
  L  176   140
  L  343   927
  L  187   927
  L  217  1065
  L  689  1065
  L  659   927
  L  503   927
  L  336   140
  L  492   140
  L  462     0
  L  -10     0z
  "/>
  </g>
  <text x="5" y="1750" font-size="50" >Clear Sans Italics Small Caps i</text>
  <text x="5" y="1810" font-size="50" >Reduced viewBox by 60</text>
</svg>
